<?xml version="1.0" standalone="no"?><!DOCTYPE svg PUBLIC "-//W3C//DTD SVG 1.1//EN" "http://www.w3.org/Graphics/SVG/1.1/DTD/svg11.dtd"><svg t="1766388711108" class="icon" viewBox="0 0 1024 1024" version="1.1" xmlns="http://www.w3.org/2000/svg" p-id="22644" xmlns:xlink="http://www.w3.org/1999/xlink" width="256" height="256"><path d="M267.636 837.818h488.728V593.455c0-134.959-109.406-244.364-244.364-244.364S267.636 458.496 267.636 593.455v244.363zM512 267.636c179.944 0 325.818 145.874 325.818 325.819v325.818H186.182V593.455c0-179.945 145.874-325.819 325.818-325.819z" fill="#4DD0E1" p-id="22645"></path><path d="M64 837.818m1 0l894 0q1 0 1 1l0 79.455q0 1-1 1l-894 0q-1 0-1-1l0-79.455q0-1 1-1Z" fill="#4DD0E1" p-id="22646"></path><path d="M471.273 84.364m1 0l79.455 0q1 0 1 1l0 120.182q0 1-1 1l-79.455 0q-1 0-1-1l0-120.182q0-1 1-1Z" fill="#4DD0E1" p-id="22647"></path><path d="M812.197 175.984l56.183 56.182a1 1 0 0 1 0 1.415L783.4 318.56a1 1 0 0 1-1.414 0l-56.183-56.182a1 1 0 0 1 0-1.414l84.981-84.981a1 1 0 0 1 1.414 0zM183.711 204.075c15.905-15.905 41.692-15.905 57.597 0l28.799 28.798c15.905 15.905 15.905 41.693 0 57.598-15.905 15.905-41.692 15.905-57.597 0l-28.799-28.799c-15.905-15.905-15.905-41.692 0-57.597z" fill="#4DD0E1" p-id="22648"></path><path d="M527.354 430.22c32.256 0 57.792 7.616 77.504 23.296 18.816 15.68 28.672 37.184 28.672 64.512 0 34.944-17.92 58.688-52.864 70.336 18.816 5.824 33.152 14.784 43.008 26.432 10.752 12.096 16.128 27.776 16.128 46.592 0 29.568-10.304 53.76-30.464 72.576-21.504 18.816-49.728 28.672-83.776 28.672-32.704 0-59.136-8.512-78.848-25.088-22.4-18.816-34.944-46.144-37.632-81.984h49.28c0.896 21.504 7.616 38.08 21.056 49.728 11.648 10.752 26.88 16.128 45.696 16.128 20.608 0 37.184-6.272 49.728-17.92 10.752-10.752 16.576-23.744 16.576-39.872 0-18.816-5.824-32.704-17.472-41.664-10.752-8.96-26.88-13.44-47.936-13.44h-23.296v-36.736h22.848c19.712 0 34.496-4.48 44.352-12.992 9.856-8.512 15.232-21.056 15.232-37.184 0-16.128-4.928-28.224-13.888-36.736-9.856-8.96-24.64-12.992-43.456-12.992-19.264 0-34.496 4.928-45.248 14.784-10.752 9.856-17.472 24.64-19.264 44.352h-47.936c2.688-31.808 14.336-56.448 35.392-74.368 19.712-17.92 45.248-26.432 76.608-26.432z" fill="#4DD0E1" p-id="22649"></path></svg>